<svg xmlns="http://www.w3.org/2000/svg" xmlns:xlink="http://www.w3.org/1999/xlink" id="body_2" preserveAspectRatio="xMinYMin meet" viewBox="0 0 720 1040"><defs><clipPath id="1"><path d="M0 780L0 0L0 0L540 0L540 0L540 780L540 780L0 780z" /></clipPath><clipPath id="2"><path d="M0 779.9998L540 779.9998L540 779.9998L540 -0.0001831055L540 -0.0001831055L0 -0.0001831055z" /></clipPath><clipPath id="3"><path d="M8.047E-06 780L540 780L540 780L540 0L540 0L8.047E-06 0z" /></clipPath><clipPath id="4"><path d="M8.047E-06 780L540 780L540 780L540 0L540 0L8.047E-06 0z" /></clipPath><clipPath id="5"><path d="M8.047E-06 780L540 780L540 780L540 0L540 0L8.047E-06 0z" /></clipPath><clipPath id="6"><path d="M-6E-08 779.9998L540 779.9998L540 779.9998L540 -0.0001831055L540 -0.0001831055L-6E-08 -0.0001831055z" /></clipPath><clipPath id="7"><path d="M8.047E-06 780L540 780L540 780L540 0L540 0L8.047E-06 0z" /></clipPath><clipPath id="8"><path d="M8.047E-06 780L540 780L540 780L540 0L540 0L8.047E-06 0z" /></clipPath><clipPath id="9"><path d="M8.047E-06 780L540 780L540 780L540 0L540 0L8.047E-06 0z" /></clipPath><clipPath id="10"><path d="M0 779.9998L540 779.9998L540 779.9998L540 -0.0001831055L540 -0.0001831055L0 -0.0001831055z" /></clipPath><clipPath id="11"><path d="M0 779.9998L540 779.9998L540 779.9998L540 -0.0001831055L540 -0.0001831055L0 -0.0001831055z" /></clipPath><clipPath id="12"><path d="M-6E-08 779.9999L540 779.9999L540 779.9999L540 -6.103516E-05L540 -6.103516E-05L-6E-08 -6.103516E-05z" /></clipPath><clipPath id="13"><path d="M8.047E-06 780L540 780L540 780L540 0L540 0L8.047E-06 0z" /></clipPath><clipPath id="14"><path d="M-6E-08 779.9998L540 779.9998L540 779.9998L540 -0.0001831055L540 -0.0001831055L-6E-08 -0.0001831055z" /></clipPath><clipPath id="15"><path d="M0 779.9999L540 779.9999L540 779.9999L540 -0.0001220703L540 -0.0001220703L0 -0.0001220703z" /></clipPath><clipPath id="16"><path d="M-6E-08 779.9998L540 779.9998L540 779.9998L540 -0.0002441406L540 -0.0002441406L-6E-08 -0.0002441406z" /></clipPath><clipPath id="17"><path d="M8.047E-06 780L540 780L540 780L540 0L540 0L8.047E-06 0z" /></clipPath><clipPath id="18"><path d="M8.047E-06 780L540 780L540 780L540 0L540 0L8.047E-06 0z" /></clipPath><clipPath id="19"><path d="M8.047E-06 780L540 780L540 780L540 0L540 0L8.047E-06 0z" /></clipPath><clipPath id="20"><path d="M8.047E-06 780L540 780L540 780L540 0L540 0L8.047E-06 0z" /></clipPath><clipPath id="21"><path d="M8.047E-06 780L540 780L540 780L540 0L540 0L8.047E-06 0z" /></clipPath><clipPath id="22"><path d="M8.047E-06 780L540 780L540 780L540 0L540 0L8.047E-06 0z" /></clipPath><clipPath id="23"><path d="M8.047E-06 780L540 780L540 780L540 0L540 0L8.047E-06 0z" /></clipPath><clipPath id="24"><path d="M8.047E-06 780L540 780L540 780L540 0L540 0L8.047E-06 0z" /></clipPath><clipPath id="25"><path d="M8.047E-06 780L540 780L540 780L540 0L540 0L8.047E-06 0z" /></clipPath><clipPath id="26"><path d="M8.047E-06 780L540 780L540 780L540 0L540 0L8.047E-06 0z" /></clipPath><clipPath id="27"><path d="M8.047E-06 780L540 780L540 780L540 0L540 0L8.047E-06 0z" /></clipPath><clipPath id="28"><path d="M8.047E-06 780L540 780L540 780L540 0L540 0L8.047E-06 0z" /></clipPath><clipPath id="29"><path d="M8.047E-06 780L540 780L540 780L540 0L540 0L8.047E-06 0z" /></clipPath><clipPath id="30"><path d="M8.047E-06 780L540 780L540 780L540 0L540 0L8.047E-06 0z" /></clipPath><clipPath id="31"><path d="M8.047E-06 780L540 780L540 780L540 0L540 0L8.047E-06 0z" /></clipPath><clipPath id="32"><path d="M8.047E-06 780L540 780L540 780L540 0L540 0L8.047E-06 0z" /></clipPath><clipPath id="33"><path d="M8.047E-06 780L540 780L540 780L540 0L540 0L8.047E-06 0z" /></clipPath><clipPath id="34"><path d="M8.047E-06 780L540 780L540 780L540 0L540 0L8.047E-06 0z" /></clipPath><clipPath id="35"><path d="M8.047E-06 780L540 780L540 780L540 0L540 0L8.047E-06 0z" /></clipPath><clipPath id="36"><path d="M8.047E-06 780L540 780L540 780L540 0L540 0L8.047E-06 0z" /></clipPath><clipPath id="37"><path d="M8.047E-06 780L540 780L540 780L540 0L540 0L8.047E-06 0z" /></clipPath><clipPath id="38"><path d="M8.047E-06 780L540 780L540 780L540 0L540 0L8.047E-06 0z" /></clipPath><clipPath id="39"><path d="M1.5259E-05 779.9996L540 779.9996L540 779.9996L540 -0.0004272461L540 -0.0004272461L1.5259E-05 -0.0004272461z" /></clipPath><clipPath id="40"><path d="M8.047E-06 780L540 780L540 780L540 0L540 0L8.047E-06 0z" /></clipPath><clipPath id="41"><path d="M8.047E-06 780L540 780L540 780L540 0L540 0L8.047E-06 0z" /></clipPath><clipPath id="42"><path d="M-1.79E-07 779.9999L540 779.9999L540 779.9999L540 -6.103516E-05L540 -6.103516E-05L-1.79E-07 -6.103516E-05z" /></clipPath><clipPath id="43"><path d="M8.047E-06 780L540 780L540 780L540 0L540 0L8.047E-06 0z" /></clipPath><clipPath id="44"><path d="M8.047E-06 780L540 780L540 780L540 0L540 0L8.047E-06 0z" /></clipPath><clipPath id="45"><path d="M8.047E-06 780L540 780L540 780L540 0L540 0L8.047E-06 0z" /></clipPath><clipPath id="46"><path d="M8.047E-06 780L540 780L540 780L540 0L540 0L8.047E-06 0z" /></clipPath><clipPath id="47"><path d="M8.047E-06 780L540 780L540 780L540 0L540 0L8.047E-06 0z" /></clipPath><clipPath id="48"><path d="M8.047E-06 780L540 780L540 780L540 0L540 0L8.047E-06 0z" /></clipPath><clipPath id="49"><path d="M8.047E-06 780L540 780L540 780L540 0L540 0L8.047E-06 0z" /></clipPath><clipPath id="50"><path d="M8.047E-06 780L540 780L540 780L540 0L540 0L8.047E-06 0z" /></clipPath><clipPath id="51"><path d="M8.047E-06 780L540 780L540 780L540 0L540 0L8.047E-06 0z" /></clipPath><clipPath id="52"><path d="M8.047E-06 780L540 780L540 780L540 0L540 0L8.047E-06 0z" /></clipPath><clipPath id="53"><path d="M8.047E-06 780L540 780L540 780L540 0L540 0L8.047E-06 0z" /></clipPath><clipPath id="54"><path d="M0 779.9998L540 779.9998L540 779.9998L540 -0.0001831055L540 -0.0001831055L0 -0.0001831055z" /></clipPath><clipPath id="55"><path d="M8.047E-06 780L540 780L540 780L540 0L540 0L8.047E-06 0z" /></clipPath><clipPath id="56"><path d="M8.047E-06 780L540 780L540 780L540 0L540 0L8.047E-06 0z" /></clipPath><clipPath id="57"><path d="M8.047E-06 780L540 780L540 780L540 0L540 0L8.047E-06 0z" /></clipPath><clipPath id="58"><path d="M8.047E-06 780L540 780L540 780L540 0L540 0L8.047E-06 0z" /></clipPath><clipPath id="59"><path d="M8.047E-06 780L540 780L540 780L540 0L540 0L8.047E-06 0z" /></clipPath><clipPath id="60"><path d="M8.047E-06 780L540 780L540 780L540 0L540 0L8.047E-06 0z" /></clipPath><clipPath id="61"><path d="M8.047E-06 780L540 780L540 780L540 0L540 0L8.047E-06 0z" /></clipPath><clipPath id="62"><path d="M8.047E-06 780L540 780L540 780L540 0L540 0L8.047E-06 0z" /></clipPath><clipPath id="63"><path d="M8.047E-06 780L540 780L540 780L540 0L540 0L8.047E-06 0z" /></clipPath><clipPath id="64"><path d="M8.047E-06 780L540 780L540 780L540 0L540 0L8.047E-06 0z" /></clipPath><clipPath id="65"><path d="M8.047E-06 780L540 780L540 780L540 0L540 0L8.047E-06 0z" /></clipPath><clipPath id="66"><path d="M8.047E-06 780L540 780L540 780L540 0L540 0L8.047E-06 0z" /></clipPath><clipPath id="67"><path d="M8.047E-06 780L540 780L540 780L540 0L540 0L8.047E-06 0z" /></clipPath><clipPath id="68"><path d="M8.047E-06 780L540 780L540 780L540 0L540 0L8.047E-06 0z" /></clipPath><clipPath id="69"><path d="M8.047E-06 780L540 780L540 780L540 0L540 0L8.047E-06 0z" /></clipPath><clipPath id="70"><path d="M8.047E-06 780L540 780L540 780L540 0L540 0L8.047E-06 0z" /></clipPath><clipPath id="71"><path d="M8.047E-06 780L540 780L540 780L540 0L540 0L8.047E-06 0z" /></clipPath><clipPath id="72"><path d="M8.047E-06 780L540 780L540 780L540 0L540 0L8.047E-06 0z" /></clipPath><clipPath id="73"><path d="M8.047E-06 780L540 780L540 780L540 0L540 0L8.047E-06 0z" /></clipPath><clipPath id="74"><path d="M8.047E-06 780L540 780L540 780L540 0L540 0L8.047E-06 0z" /></clipPath><clipPath id="75"><path d="M8.047E-06 780L540 780L540 780L540 0L540 0L8.047E-06 0z" /></clipPath><clipPath id="76"><path d="M1.5259E-05 0L540 0L540 0L540 779.9998L540 779.9998L3.0518E-05 779.9998" /></clipPath><clipPath id="77"><path d="M8.047E-06 780L540 780L540 780L540 0L540 0L8.047E-06 0z" /></clipPath><clipPath id="78"><path d="M8.047E-06 780L540 780L540 780L540 0L540 0L8.047E-06 0z" /></clipPath><clipPath id="79"><path d="M8.047E-06 780L540 780L540 780L540 0L540 0L8.047E-06 0z" /></clipPath><clipPath id="80"><path d="M8.047E-06 780L540 780L540 780L540 0L540 0L8.047E-06 0z" /></clipPath><clipPath id="81"><path d="M8.047E-06 780L540 780L540 780L540 0L540 0L8.047E-06 0z" /></clipPath><clipPath id="82"><path d="M8.047E-06 780L540 780L540 780L540 0L540 0L8.047E-06 0z" /></clipPath><clipPath id="83"><path d="M8.047E-06 780L540 780L540 780L540 0L540 0L8.047E-06 0z" /></clipPath><clipPath id="84"><path d="M8.047E-06 780L540 780L540 780L540 0L540 0L8.047E-06 0z" /></clipPath><clipPath id="85"><path d="M8.047E-06 780L540 780L540 780L540 0L540 0L8.047E-06 0z" /></clipPath><clipPath id="86"><path d="M8.047E-06 780L540 780L540 780L540 0L540 0L8.047E-06 0z" /></clipPath><clipPath id="87"><path d="M8.047E-06 780L540 780L540 780L540 0L540 0L8.047E-06 0z" /></clipPath><clipPath id="88"><path d="M8.047E-06 780L540 780L540 780L540 0L540 0L8.047E-06 0z" /></clipPath><clipPath id="89"><path d="M8.047E-06 780L540 780L540 780L540 0L540 0L8.047E-06 0z" /></clipPath><clipPath id="90"><path d="M8.047E-06 780L540 780L540 780L540 0L540 0L8.047E-06 0z" /></clipPath><clipPath id="91"><path d="M8.047E-06 780L540 780L540 780L540 0L540 0L8.047E-06 0z" /></clipPath><clipPath id="92"><path d="M8.047E-06 780L540 780L540 780L540 0L540 0L8.047E-06 0z" /></clipPath><clipPath id="93"><path d="M8.047E-06 780L540 780L540 780L540 0L540 0L8.047E-06 0z" /></clipPath><clipPath id="94"><path d="M8.047E-06 780L540 780L540 780L540 0L540 0L8.047E-06 0z" /></clipPath><clipPath id="95"><path d="M8.047E-06 780L540 780L540 780L540 0L540 0L8.047E-06 0z" /></clipPath><clipPath id="96"><path d="M8.047E-06 780L540 780L540 780L540 0L540 0L8.047E-06 0z" /></clipPath><clipPath id="97"><path d="M8.047E-06 780L540 780L540 780L540 0L540 0L8.047E-06 0z" /></clipPath><clipPath id="98"><path d="M8.047E-06 780L540 780L540 780L540 0L540 0L8.047E-06 0z" /></clipPath><clipPath id="99"><path d="M8.047E-06 780L540 780L540 780L540 0L540 0L8.047E-06 0z" /></clipPath><clipPath id="100"><path d="M8.047E-06 780L540 780L540 780L540 0L540 0L8.047E-06 0z" /></clipPath><clipPath id="101"><path d="M8.047E-06 780L540 780L540 780L540 0L540 0L8.047E-06 0z" /></clipPath><clipPath id="102"><path d="M8.047E-06 780L540 780L540 780L540 0L540 0L8.047E-06 0z" /></clipPath><clipPath id="103"><path d="M8.047E-06 780L540 780L540 780L540 0L540 0L8.047E-06 0z" /></clipPath><clipPath id="104"><path d="M8.047E-06 780L540 780L540 780L540 0L540 0L8.047E-06 0z" /></clipPath><clipPath id="105"><path d="M0 779.9998L540 779.9998L540 779.9998L540 -0.0001831055L540 -0.0001831055L0 -0.0001831055z" /></clipPath><clipPath id="106"><path d="M8.047E-06 780L540 780L540 780L540 0L540 0L8.047E-06 0z" /></clipPath><clipPath id="107"><path d="M8.047E-06 780L540 780L540 780L540 0L540 0L8.047E-06 0z" /></clipPath><clipPath id="108"><path d="M8.047E-06 780L540 780L540 780L540 0L540 0L8.047E-06 0z" /></clipPath><clipPath id="109"><path d="M8.047E-06 780L540 780L540 780L540 0L540 0L8.047E-06 0z" /></clipPath><clipPath id="110"><path d="M8.047E-06 780L540 780L540 780L540 0L540 0L8.047E-06 0z" /></clipPath><clipPath id="111"><path d="M8.047E-06 780L540 780L540 780L540 0L540 0L8.047E-06 0z" /></clipPath><clipPath id="112"><path d="M8.047E-06 780L540 780L540 780L540 0L540 0L8.047E-06 0z" /></clipPath><clipPath id="113"><path d="M8.047E-06 780L540 780L540 780L540 0L540 0L8.047E-06 0z" /></clipPath><clipPath id="114"><path d="M8.047E-06 780L540 780L540 780L540 0L540 0L8.047E-06 0z" /></clipPath><clipPath id="115"><path d="M8.047E-06 780L540 780L540 780L540 0L540 0L8.047E-06 0z" /></clipPath><clipPath id="116"><path d="M8.047E-06 780L540 780L540 780L540 0L540 0L8.047E-06 0z" /></clipPath><clipPath id="117"><path d="M8.047E-06 780L540 780L540 780L540 0L540 0L8.047E-06 0z" /></clipPath><clipPath id="118"><path d="M8.047E-06 780L540 780L540 780L540 0L540 0L8.047E-06 0z" /></clipPath><clipPath id="119"><path d="M8.047E-06 780L540 780L540 780L540 0L540 0L8.047E-06 0z" /></clipPath><clipPath id="120"><path d="M0 779.9998L540 779.9998L540 779.9998L540 -0.0002441406L540 -0.0002441406L0 -0.0002441406z" /></clipPath><clipPath id="121"><path d="M8.047E-06 780L540 780L540 780L540 0L540 0L8.047E-06 0z" /></clipPath><clipPath id="122"><path d="M8.047E-06 780L540 780L540 780L540 0L540 0L8.047E-06 0z" /></clipPath><clipPath id="123"><path d="M8.047E-06 780L540 780L540 780L540 0L540 0L8.047E-06 0z" /></clipPath><clipPath id="124"><path d="M8.047E-06 780L540 780L540 780L540 0L540 0L8.047E-06 0z" /></clipPath><clipPath id="125"><path d="M8.047E-06 780L540 780L540 780L540 0L540 0L8.047E-06 0z" /></clipPath><clipPath id="126"><path d="M8.047E-06 780L540 780L540 780L540 0L540 0L8.047E-06 0z" /></clipPath><clipPath id="127"><path d="M8.047E-06 780L540 780L540 780L540 0L540 0L8.047E-06 0z" /></clipPath><clipPath id="128"><path d="M8.047E-06 780L540 780L540 780L540 0L540 0L8.047E-06 0z" /></clipPath><clipPath id="129"><path d="M0 779.9999L540 779.9999L540 779.9999L540 -0.0001220703L540 -0.0001220703L0 -0.0001220703z" /></clipPath><clipPath id="130"><path d="M8.047E-06 780L540 780L540 780L540 0L540 0L8.047E-06 0z" /></clipPath><clipPath id="131"><path d="M8.047E-06 780L540 780L540 780L540 0L540 0L8.047E-06 0z" /></clipPath><clipPath id="132"><path d="M8.047E-06 780L540 780L540 780L540 0L540 0L8.047E-06 0z" /></clipPath><clipPath id="133"><path d="M8.047E-06 780L540 780L540 780L540 0L540 0L8.047E-06 0z" /></clipPath><clipPath id="134"><path d="M8.047E-06 780L540 780L540 780L540 0L540 0L8.047E-06 0z" /></clipPath><clipPath id="135"><path d="M8.047E-06 780L540 780L540 780L540 0L540 0L8.047E-06 0z" /></clipPath><clipPath id="136"><path d="M8.047E-06 780L540 780L540 780L540 0L540 0L8.047E-06 0z" /></clipPath><clipPath id="137"><path d="M8.047E-06 780L540 780L540 780L540 0L540 0L8.047E-06 0z" /></clipPath><clipPath id="138"><path d="M8.047E-06 780L540 780L540 780L540 0L540 0L8.047E-06 0z" /></clipPath><clipPath id="139"><path d="M8.047E-06 780L540 780L540 780L540 0L540 0L8.047E-06 0z" /></clipPath><clipPath id="140"><path d="M8.047E-06 780L540 780L540 780L540 0L540 0L8.047E-06 0z" /></clipPath><clipPath id="141"><path d="M8.047E-06 780L540 780L540 780L540 0L540 0L8.047E-06 0z" /></clipPath><clipPath id="142"><path d="M8.047E-06 780L540 780L540 780L540 0L540 0L8.047E-06 0z" /></clipPath><clipPath id="143"><path d="M8.047E-06 780L540 780L540 780L540 0L540 0L8.047E-06 0z" /></clipPath><clipPath id="144"><path d="M8.047E-06 780L540 780L540 780L540 0L540 0L8.047E-06 0z" /></clipPath><clipPath id="145"><path d="M8.047E-06 780L540 780L540 780L540 0L540 0L8.047E-06 0z" /></clipPath><clipPath id="146"><path d="M8.047E-06 780L540 780L540 780L540 0L540 0L8.047E-06 0z" /></clipPath><clipPath id="147"><path d="M8.047E-06 780L540 780L540 780L540 0L540 0L8.047E-06 0z" /></clipPath><clipPath id="148"><path d="M8.047E-06 780L540 780L540 780L540 0L540 0L8.047E-06 0z" /></clipPath><clipPath id="149"><path d="M8.047E-06 780L540 780L540 780L540 0L540 0L8.047E-06 0z" /></clipPath><clipPath id="150"><path d="M8.047E-06 780L540 780L540 780L540 0L540 0L8.047E-06 0z" /></clipPath><clipPath id="151"><path d="M8.047E-06 780L540 780L540 780L540 0L540 0L8.047E-06 0z" /></clipPath><clipPath id="152"><path d="M3.0518E-05 779.9998L540.0001 779.9998L540.0001 779.9998L540.0001 -0.0002441406L540.0001 -0.0002441406L3.0518E-05 -0.0002441406z" /></clipPath><clipPath id="153"><path d="M8.047E-06 780L540 780L540 780L540 0L540 0L8.047E-06 0z" /></clipPath><clipPath id="154"><path d="M8.047E-06 780L540 780L540 780L540 0L540 0L8.047E-06 0z" /></clipPath><clipPath id="155"><path d="M8.047E-06 780L540 780L540 780L540 0L540 0L8.047E-06 0z" /></clipPath><clipPath id="156"><path d="M8.047E-06 780L540 780L540 780L540 0L540 0L8.047E-06 0z" /></clipPath><clipPath id="157"><path d="M8.047E-06 780L540 780L540 780L540 0L540 0L8.047E-06 0z" /></clipPath><clipPath id="158"><path d="M8.047E-06 780L540 780L540 780L540 0L540 0L8.047E-06 0z" /></clipPath><clipPath id="159"><path d="M8.047E-06 780L540 780L540 780L540 0L540 0L8.047E-06 0z" /></clipPath><clipPath id="160"><path d="M8.047E-06 780L540 780L540 780L540 0L540 0L8.047E-06 0z" /></clipPath><clipPath id="161"><path d="M8.047E-06 780L540 780L540 780L540 0L540 0L8.047E-06 0z" /></clipPath><clipPath id="162"><path d="M8.047E-06 780L540 780L540 780L540 0L540 0L8.047E-06 0z" /></clipPath><clipPath id="163"><path d="M0 779.9998L540 779.9998L540 779.9998L540 -0.0001831055L540 -0.0001831055L0 -0.0001831055z" /></clipPath><clipPath id="164"><path d="M8.047E-06 780L540 780L540 780L540 0L540 0L8.047E-06 0z" /></clipPath><clipPath id="165"><path d="M8.047E-06 780L540 780L540 780L540 0L540 0L8.047E-06 0z" /></clipPath><clipPath id="166"><path d="M8.047E-06 780L540 780L540 780L540 0L540 0L8.047E-06 0z" /></clipPath><clipPath id="167"><path d="M8.047E-06 780L540 780L540 780L540 0L540 0L8.047E-06 0z" /></clipPath></defs><g transform="matrix(1.333333 0 0 1.333333 0 0)"><g><g clip-path="url(#1)"><g clip-path="url(#2)"><path transform="matrix(1 0 0 -1 0 780)" d="M0 6.1035E-05L540 6.1035E-05L540 6.1035E-05L540 780.0001L540 780.0001L0 780.0001z" stroke="none" fill="#FFFFFF" fill-rule="evenodd" /></g><g clip-path="url(#3)"></g><g clip-path="url(#4)"></g><g clip-path="url(#5)"></g><g clip-path="url(#6)"><path transform="matrix(1 0 0 -1 0 780)" d="M-0.75 95.37L537.48 95.37" stroke="#000000" stroke-width="4.5" fill="none" /></g><g clip-path="url(#7)"></g><g clip-path="url(#8)"></g><g clip-path="url(#9)"></g><g clip-path="url(#10)"><path transform="matrix(1 0 0 -1 0 780)" d="M0.03 779.97L0.030079 -0.029663" stroke="#000000" stroke-width="4.5" fill="none" /></g><g clip-path="url(#11)"><path transform="matrix(1 0 0 -1 0 780)" d="M540.03 779.97L540.03 -0.029968" stroke="#000000" stroke-width="4.5" fill="none" /></g><g clip-path="url(#12)"><path transform="matrix(1 0 0 -1 0 780)" d="M0.57 -0.029968L541.03 -0.030029" stroke="#000000" stroke-width="4.5" fill="none" /></g><g clip-path="url(#13)"></g><g clip-path="url(#14)"><path transform="matrix(1 0 0 -1 0 780)" d="M-0.75 779.97L541.05 779.97" stroke="#000000" stroke-width="4.5" fill="none" /></g><g clip-path="url(#15)"><path transform="matrix(1 0 0 -1 0 780)" d="M0.03 125.61L538.26 125.61" stroke="#000000" stroke-width="4.5" fill="none" /></g><g clip-path="url(#16)"><path transform="matrix(1 0 0 -1 0 780)" d="M0.51 654.33L538.77 654.33L538.77 654.33L538.77 779.61L538.77 779.61L0.51 779.61z" stroke="#000000" stroke-width="4.5" fill="none" /></g><g clip-path="url(#17)"></g><g clip-path="url(#18)"></g><g clip-path="url(#19)"></g><g clip-path="url(#20)"></g><g clip-path="url(#21)"></g><g clip-path="url(#22)"></g><g clip-path="url(#23)"></g><g clip-path="url(#24)"></g><g clip-path="url(#25)"></g><g clip-path="url(#26)"></g><g clip-path="url(#27)"></g><g clip-path="url(#28)"></g><g clip-path="url(#29)"></g><g clip-path="url(#30)"></g><g clip-path="url(#31)"></g><g clip-path="url(#32)"></g><g clip-path="url(#33)"></g><g clip-path="url(#34)"></g><g clip-path="url(#35)"></g><g clip-path="url(#36)"></g><g clip-path="url(#37)"></g><g clip-path="url(#38)"></g><g clip-path="url(#39)"><path transform="matrix(1 0 0 -1 0 780)" d="M250.74 780.24L250.74 654.39" stroke="#000000" stroke-width="2.25" stroke-dasharray="1,1" fill="none" /></g><g clip-path="url(#40)"></g><g clip-path="url(#41)"></g><g clip-path="url(#42)"><path transform="matrix(1 0 0 -1 0 780)" d="M-0.75 621.18L250.87 621.18L250.87 621.18L250.87 651.69L250.87 651.69L249 651.69" stroke="#000000" stroke-width="4.5" fill="none" /></g><g clip-path="url(#43)"></g><g clip-path="url(#44)"></g><g clip-path="url(#45)"></g><g clip-path="url(#46)"></g><g clip-path="url(#47)"></g><g clip-path="url(#48)"></g><g clip-path="url(#49)"></g><g clip-path="url(#50)"></g><g clip-path="url(#51)"></g><g clip-path="url(#52)"></g><g clip-path="url(#53)"></g><g clip-path="url(#54)"><path transform="matrix(1 0 0 -1 0 780)" d="M0.03 568.17L538.77 568.17" stroke="#000000" stroke-width="4.5" fill="none" /></g><g clip-path="url(#55)"></g><g clip-path="url(#56)"></g><g clip-path="url(#57)"></g><g clip-path="url(#58)"></g><g clip-path="url(#59)"></g><g clip-path="url(#60)"></g><g clip-path="url(#61)"></g><g clip-path="url(#62)"></g><g clip-path="url(#63)"></g><g clip-path="url(#64)"></g><g clip-path="url(#65)"></g><g clip-path="url(#66)"></g><g clip-path="url(#67)"></g><g clip-path="url(#68)"></g><g clip-path="url(#69)"></g><g clip-path="url(#70)"></g><g clip-path="url(#71)"></g><g clip-path="url(#72)"></g><g clip-path="url(#73)"></g><g clip-path="url(#74)"></g><g clip-path="url(#75)"></g><g clip-path="url(#76)"><path transform="matrix(1 0 0 -1 0 780)" d="M142.53 571.05L142.53 318.99L142.53 318.99L4.29 318.99L4.29 318.99L4.29 321.93" stroke="#000000" stroke-width="4.5" fill="none" /></g><g clip-path="url(#77)"></g><g clip-path="url(#78)"></g><path transform="matrix(1 0 0 -1 0 780)" d="M142.53 549.1L334.71 549.1L334.71 549.1L334.71 566.85L334.71 566.85L331.89 566.85" stroke="#000000" stroke-width="4.5" fill="none" /><g clip-path="url(#79)"></g><g clip-path="url(#80)"></g><g clip-path="url(#81)"></g><g clip-path="url(#82)"></g><g clip-path="url(#83)"></g><g clip-path="url(#84)"></g><g clip-path="url(#85)"></g><g clip-path="url(#86)"></g><g clip-path="url(#87)"></g><g clip-path="url(#88)"></g><g clip-path="url(#89)"></g><g clip-path="url(#90)"></g><g clip-path="url(#91)"></g><g clip-path="url(#92)"></g><g clip-path="url(#93)"></g><g clip-path="url(#94)"></g><g clip-path="url(#95)"></g><g clip-path="url(#96)"></g><g clip-path="url(#97)"></g><g clip-path="url(#98)"></g><g clip-path="url(#99)"></g><g clip-path="url(#100)"></g><g clip-path="url(#101)"></g><g clip-path="url(#102)"></g><g clip-path="url(#103)"></g><g clip-path="url(#104)"></g><g clip-path="url(#105)"><path transform="matrix(1 0 0 -1 0 780)" d="M334.71 549.15L331.77 549.15L331.77 549.15L331.77 389.99L331.77 389.99L540.03 389.99" stroke="#000000" stroke-width="4.5" fill="none" /></g><path transform="matrix(1 0 0 -1 0 780)" d="M142.53 492.93L331.89 492.93" stroke="#000000" stroke-width="4.5" fill="none" /><path transform="matrix(1 0 0 -1 0 780)" d="M142.53 390.93L331.89 390.93" stroke="#000000" stroke-width="4.5" fill="none" /><g clip-path="url(#106)"></g><g clip-path="url(#107)"></g><g clip-path="url(#108)"></g><g clip-path="url(#109)"></g><g clip-path="url(#110)"></g><g clip-path="url(#111)"></g><g clip-path="url(#112)"></g><g clip-path="url(#113)"></g><path transform="matrix(1 0 0 -1 0 780)" d="M359.92 390.03L358.6 390.03L358.6 390.03L358.6 275.01L358.6 275.01L141.27 275.01" stroke="#000000" stroke-width="4.5" fill="none" /><path transform="matrix(1 0 0 -1 0 780)" d="M142.53 318.93L142.53 275.01" stroke="#000000" stroke-width="4.5" fill="none" /><g clip-path="url(#114)"></g><g clip-path="url(#115)"></g><g clip-path="url(#116)"></g><g clip-path="url(#117)"></g><g clip-path="url(#118)"></g><g clip-path="url(#119)"></g><g clip-path="url(#120)"><path transform="matrix(1 0 0 -1 0 780)" d="M359.91 316.35L538.76 316.35" stroke="#000000" stroke-width="4.5" fill="none" /></g><g clip-path="url(#121)"></g><g clip-path="url(#122)"></g><g clip-path="url(#123)"></g><g clip-path="url(#124)"></g><g clip-path="url(#125)"></g><g clip-path="url(#126)"></g><g clip-path="url(#127)"></g><g clip-path="url(#128)"></g><g clip-path="url(#129)"><path transform="matrix(1 0 0 -1 0 780)" d="M358.95 275.49L356.99 275.49L356.99 275.49L356.99 233.08L356.99 233.08L541.04 233.08" stroke="#000000" stroke-width="4.5" fill="none" /></g><g clip-path="url(#130)"></g><g clip-path="url(#131)"></g><g clip-path="url(#132)"></g><g clip-path="url(#133)"></g><g clip-path="url(#134)"></g><g clip-path="url(#135)"></g><g clip-path="url(#136)"></g><g clip-path="url(#137)"></g><g clip-path="url(#138)"></g><g clip-path="url(#139)"></g><g clip-path="url(#140)"></g><g clip-path="url(#141)"></g><g clip-path="url(#142)"></g><g clip-path="url(#143)"></g><g clip-path="url(#144)"></g><g clip-path="url(#145)"></g><g clip-path="url(#146)"></g><g clip-path="url(#147)"></g><g clip-path="url(#148)"></g><g clip-path="url(#149)"></g><g clip-path="url(#150)"></g><g clip-path="url(#151)"></g><g clip-path="url(#152)"><path transform="matrix(1 0 0 -1 0 780)" d="M213.17 275.49L168.67 275.49L168.67 275.49L168.67 209.75L168.67 209.75L1.17 209.75" stroke="#000000" stroke-width="4.5" fill="none" /></g><g clip-path="url(#153)"></g><g clip-path="url(#154)"></g><g clip-path="url(#155)"></g><g clip-path="url(#156)"></g><g clip-path="url(#157)"></g><g clip-path="url(#158)"></g><g clip-path="url(#159)"></g><g clip-path="url(#160)"></g><g clip-path="url(#161)"></g><g clip-path="url(#162)"></g><g clip-path="url(#163)"><path transform="matrix(1 0 0 -1 0 780)" d="M166.35 209.73L167.69 209.73L167.69 209.73L167.69 190.67L167.69 190.67L541.03 190.67" stroke="#000000" stroke-width="4.5" fill="none" /></g><g clip-path="url(#164)"></g><g clip-path="url(#165)"></g><g clip-path="url(#166)"></g><g clip-path="url(#167)"></g></g></g></g></svg>