<svg xmlns="http://www.w3.org/2000/svg" xmlns:xlink="http://www.w3.org/1999/xlink" id="body_2" preserveAspectRatio="xMinYMin meet" viewBox="0 0 720 1040"><defs><clipPath id="1"><path d="M0 780L0 0L0 0L540 0L540 0L540 780L540 780L0 780z" /></clipPath><clipPath id="2"><path d="M0 779.9998L540 779.9998L540 779.9998L540 -0.0001831055L540 -0.0001831055L0 -0.0001831055z" /></clipPath><clipPath id="3"><path d="M8.047E-06 780L540 780L540 780L540 0L540 0L8.047E-06 0z" /></clipPath><clipPath id="4"><path d="M8.047E-06 780L540 780L540 780L540 0L540 0L8.047E-06 0z" /></clipPath><clipPath id="5"><path d="M8.047E-06 780L540 780L540 780L540 0L540 0L8.047E-06 0z" /></clipPath><clipPath id="6"><path d="M8.047E-06 780L540 780L540 780L540 0L540 0L8.047E-06 0z" /></clipPath><clipPath id="7"><path d="M8.047E-06 780L540 780L540 780L540 0L540 0L8.047E-06 0z" /></clipPath><clipPath id="8"><path d="M8.047E-06 780L540 780L540 780L540 0L540 0L8.047E-06 0z" /></clipPath><clipPath id="9"><path d="M8.047E-06 780L540 780L540 780L540 0L540 0L8.047E-06 0z" /></clipPath><clipPath id="10"><path d="M8.047E-06 780L540 780L540 780L540 0L540 0L8.047E-06 0z" /></clipPath><clipPath id="11"><path d="M0 779.9998L540 779.9998L540 779.9998L540 -0.0001831055L540 -0.0001831055L0 -0.0001831055z" /></clipPath><clipPath id="12"><path d="M-4.77E-07 779.9998L540 779.9998L540 779.9998L540 -0.0001831055L540 -0.0001831055L-4.77E-07 -0.0001831055z" /></clipPath><clipPath id="13"><path d="M0 779.9998L540 779.9998L540 779.9998L540 -0.0001831055L540 -0.0001831055L0 -0.0001831055z" /></clipPath><clipPath id="14"><path d="M8.047E-06 780L540 780L540 780L540 0L540 0L8.047E-06 0z" /></clipPath><clipPath id="15"><path d="M8.047E-06 780L540 780L540 780L540 0L540 0L8.047E-06 0z" /></clipPath><clipPath id="16"><path d="M8.047E-06 780L540 780L540 780L540 0L540 0L8.047E-06 0z" /></clipPath><clipPath id="17"><path d="M8.047E-06 780L540 780L540 780L540 0L540 0L8.047E-06 0z" /></clipPath><clipPath id="18"><path d="M8.047E-06 780L540 780L540 780L540 0L540 0L8.047E-06 0z" /></clipPath><clipPath id="19"><path d="M8.047E-06 780L540 780L540 780L540 0L540 0L8.047E-06 0z" /></clipPath><clipPath id="20"><path d="M8.047E-06 780L540 780L540 780L540 0L540 0L8.047E-06 0z" /></clipPath><clipPath id="21"><path d="M8.047E-06 780L540 780L540 780L540 0L540 0L8.047E-06 0z" /></clipPath><clipPath id="22"><path d="M8.047E-06 780L540 780L540 780L540 0L540 0L8.047E-06 0z" /></clipPath><clipPath id="23"><path d="M0 779.9998L540 779.9998L540 779.9998L540 -0.0001831055L540 -0.0001831055L0 -0.0001831055z" /></clipPath><clipPath id="24"><path d="M8.047E-06 780L540 780L540 780L540 0L540 0L8.047E-06 0z" /></clipPath><clipPath id="25"><path d="M8.047E-06 780L540 780L540 780L540 0L540 0L8.047E-06 0z" /></clipPath><clipPath id="26"><path d="M8.047E-06 780L540 780L540 780L540 0L540 0L8.047E-06 0z" /></clipPath><clipPath id="27"><path d="M8.047E-06 780L540 780L540 780L540 0L540 0L8.047E-06 0z" /></clipPath><clipPath id="28"><path d="M8.047E-06 780L540 780L540 780L540 0L540 0L8.047E-06 0z" /></clipPath><clipPath id="29"><path d="M8.047E-06 780L540 780L540 780L540 0L540 0L8.047E-06 0z" /></clipPath><clipPath id="30"><path d="M8.047E-06 780L540 780L540 780L540 0L540 0L8.047E-06 0z" /></clipPath><clipPath id="31"><path d="M8.047E-06 780L540 780L540 780L540 0L540 0L8.047E-06 0z" /></clipPath><clipPath id="32"><path d="M8.047E-06 780L540 780L540 780L540 0L540 0L8.047E-06 0z" /></clipPath><clipPath id="33"><path d="M0 779.9998L540 779.9998L540 779.9998L540 -0.0001831055L540 -0.0001831055L0 -0.0001831055z" /></clipPath><clipPath id="34"><path d="M8.047E-06 780L540 780L540 780L540 0L540 0L8.047E-06 0z" /></clipPath><clipPath id="35"><path d="M8.047E-06 780L540 780L540 780L540 0L540 0L8.047E-06 0z" /></clipPath><clipPath id="36"><path d="M8.047E-06 780L540 780L540 780L540 0L540 0L8.047E-06 0z" /></clipPath><clipPath id="37"><path d="M8.047E-06 780L540 780L540 780L540 0L540 0L8.047E-06 0z" /></clipPath><clipPath id="38"><path d="M8.047E-06 780L540 780L540 780L540 0L540 0L8.047E-06 0z" /></clipPath><clipPath id="39"><path d="M8.047E-06 780L540 780L540 780L540 0L540 0L8.047E-06 0z" /></clipPath><clipPath id="40"><path d="M8.047E-06 780L540 780L540 780L540 0L540 0L8.047E-06 0z" /></clipPath><clipPath id="41"><path d="M8.047E-06 780L540 780L540 780L540 0L540 0L8.047E-06 0z" /></clipPath><clipPath id="42"><path d="M8.047E-06 780L540 780L540 780L540 0L540 0L8.047E-06 0z" /></clipPath><clipPath id="43"><path d="M8.047E-06 780L540 780L540 780L540 0L540 0L8.047E-06 0z" /></clipPath><clipPath id="44"><path d="M8.047E-06 780L540 780L540 780L540 0L540 0L8.047E-06 0z" /></clipPath><clipPath id="45"><path d="M8.047E-06 780L540 780L540 780L540 0L540 0L8.047E-06 0z" /></clipPath><clipPath id="46"><path d="M8.047E-06 780L540 780L540 780L540 0L540 0L8.047E-06 0z" /></clipPath><clipPath id="47"><path d="M8.047E-06 780L540 780L540 780L540 0L540 0L8.047E-06 0z" /></clipPath><clipPath id="48"><path d="M8.047E-06 780L540 780L540 780L540 0L540 0L8.047E-06 0z" /></clipPath><clipPath id="49"><path d="M8.047E-06 780L540 780L540 780L540 0L540 0L8.047E-06 0z" /></clipPath><clipPath id="50"><path d="M8.047E-06 780L540 780L540 780L540 0L540 0L8.047E-06 0z" /></clipPath><clipPath id="51"><path d="M0 779.9998L540 779.9998L540 779.9998L540 -0.0001831055L540 -0.0001831055L0 -0.0001831055z" /></clipPath><clipPath id="52"><path d="M8.047E-06 780L540 780L540 780L540 0L540 0L8.047E-06 0z" /></clipPath><clipPath id="53"><path d="M8.047E-06 780L540 780L540 780L540 0L540 0L8.047E-06 0z" /></clipPath><clipPath id="54"><path d="M8.047E-06 780L540 780L540 780L540 0L540 0L8.047E-06 0z" /></clipPath><clipPath id="55"><path d="M8.047E-06 780L540 780L540 780L540 0L540 0L8.047E-06 0z" /></clipPath><clipPath id="56"><path d="M8.047E-06 780L540 780L540 780L540 0L540 0L8.047E-06 0z" /></clipPath><clipPath id="57"><path d="M8.047E-06 780L540 780L540 780L540 0L540 0L8.047E-06 0z" /></clipPath><clipPath id="58"><path d="M8.047E-06 780L540 780L540 780L540 0L540 0L8.047E-06 0z" /></clipPath><clipPath id="59"><path d="M-1.19E-07 779.9998L540 779.9998L540 779.9998L540 -0.0001831055L540 -0.0001831055L-1.19E-07 -0.0001831055z" /></clipPath><clipPath id="60"><path d="M8.047E-06 780L540 780L540 780L540 0L540 0L8.047E-06 0z" /></clipPath><clipPath id="61"><path d="M8.047E-06 780L540 780L540 780L540 0L540 0L8.047E-06 0z" /></clipPath><clipPath id="62"><path d="M8.047E-06 780L540 780L540 780L540 0L540 0L8.047E-06 0z" /></clipPath><clipPath id="63"><path d="M8.047E-06 780L540 780L540 780L540 0L540 0L8.047E-06 0z" /></clipPath><clipPath id="64"><path d="M8.047E-06 780L540 780L540 780L540 0L540 0L8.047E-06 0z" /></clipPath><clipPath id="65"><path d="M8.047E-06 780L540 780L540 780L540 0L540 0L8.047E-06 0z" /></clipPath><clipPath id="66"><path d="M8.047E-06 780L540 780L540 780L540 0L540 0L8.047E-06 0z" /></clipPath><clipPath id="67"><path d="M8.047E-06 780L540 780L540 780L540 0L540 0L8.047E-06 0z" /></clipPath><clipPath id="68"><path d="M0 779.9998L540 779.9998L540 779.9998L540 -0.0001831055L540 -0.0001831055L0 -0.0001831055z" /></clipPath><clipPath id="69"><path d="M8.047E-06 780L540 780L540 780L540 0L540 0L8.047E-06 0z" /></clipPath><clipPath id="70"><path d="M8.047E-06 780L540 780L540 780L540 0L540 0L8.047E-06 0z" /></clipPath><clipPath id="71"><path d="M8.047E-06 780L540 780L540 780L540 0L540 0L8.047E-06 0z" /></clipPath><clipPath id="72"><path d="M8.047E-06 780L540 780L540 780L540 0L540 0L8.047E-06 0z" /></clipPath><clipPath id="73"><path d="M8.047E-06 780L540 780L540 780L540 0L540 0L8.047E-06 0z" /></clipPath><clipPath id="74"><path d="M8.047E-06 780L540 780L540 780L540 0L540 0L8.047E-06 0z" /></clipPath><clipPath id="75"><path d="M-6E-08 779.9998L540 779.9998L540 779.9998L540 -0.0001831055L540 -0.0001831055L-6E-08 -0.0001831055z" /></clipPath><clipPath id="76"><path d="M0 779.9998L540 779.9998L540 779.9998L540 -0.0001831055L540 -0.0001831055L0 -0.0001831055z" /></clipPath><clipPath id="77"><path d="M8.047E-06 780L540 780L540 780L540 0L540 0L8.047E-06 0z" /></clipPath><clipPath id="78"><path d="M8.047E-06 780L540 780L540 780L540 0L540 0L8.047E-06 0z" /></clipPath><clipPath id="79"><path d="M8.047E-06 780L540 780L540 780L540 0L540 0L8.047E-06 0z" /></clipPath><clipPath id="80"><path d="M8.047E-06 780L540 780L540 780L540 0L540 0L8.047E-06 0z" /></clipPath><clipPath id="81"><path d="M8.047E-06 780L540 780L540 780L540 0L540 0L8.047E-06 0z" /></clipPath><clipPath id="82"><path d="M8.047E-06 780L540 780L540 780L540 0L540 0L8.047E-06 0z" /></clipPath><clipPath id="83"><path d="M8.047E-06 780L540 780L540 780L540 0L540 0L8.047E-06 0z" /></clipPath><clipPath id="84"><path d="M8.047E-06 780L540 780L540 780L540 0L540 0L8.047E-06 0z" /></clipPath><clipPath id="85"><path d="M8.047E-06 780L540 780L540 780L540 0L540 0L8.047E-06 0z" /></clipPath><clipPath id="86"><path d="M8.047E-06 780L540 780L540 780L540 0L540 0L8.047E-06 0z" /></clipPath><clipPath id="87"><path d="M8.047E-06 780L540 780L540 780L540 0L540 0L8.047E-06 0z" /></clipPath><clipPath id="88"><path d="M8.047E-06 780L540 780L540 780L540 0L540 0L8.047E-06 0z" /></clipPath><clipPath id="89"><path d="M8.047E-06 780L540 780L540 780L540 0L540 0L8.047E-06 0z" /></clipPath><clipPath id="90"><path d="M8.047E-06 780L540 780L540 780L540 0L540 0L8.047E-06 0z" /></clipPath><clipPath id="91"><path d="M8.047E-06 780L540 780L540 780L540 0L540 0L8.047E-06 0z" /></clipPath><clipPath id="92"><path d="M8.047E-06 780L540 780L540 780L540 0L540 0L8.047E-06 0z" /></clipPath><clipPath id="93"><path d="M8.047E-06 780L540 780L540 780L540 0L540 0L8.047E-06 0z" /></clipPath><clipPath id="94"><path d="M8.047E-06 780L540 780L540 780L540 0L540 0L8.047E-06 0z" /></clipPath><clipPath id="95"><path d="M8.047E-06 780L540 780L540 780L540 0L540 0L8.047E-06 0z" /></clipPath><clipPath id="96"><path d="M8.047E-06 780L540 780L540 780L540 0L540 0L8.047E-06 0z" /></clipPath><clipPath id="97"><path d="M8.047E-06 780L540 780L540 780L540 0L540 0L8.047E-06 0z" /></clipPath><clipPath id="98"><path d="M8.047E-06 780L540 780L540 780L540 0L540 0L8.047E-06 0z" /></clipPath><clipPath id="99"><path d="M8.047E-06 780L540 780L540 780L540 0L540 0L8.047E-06 0z" /></clipPath><clipPath id="100"><path d="M8.047E-06 780L540 780L540 780L540 0L540 0L8.047E-06 0z" /></clipPath><clipPath id="101"><path d="M8.047E-06 780L540 780L540 780L540 0L540 0L8.047E-06 0z" /></clipPath><clipPath id="102"><path d="M8.047E-06 780L540 780L540 780L540 0L540 0L8.047E-06 0z" /></clipPath><clipPath id="103"><path d="M8.047E-06 780L540 780L540 780L540 0L540 0L8.047E-06 0z" /></clipPath><clipPath id="104"><path d="M0 779.9999L540 779.9999L540 779.9999L540 -0.0001220703L540 -0.0001220703L0 -0.0001220703z" /></clipPath><clipPath id="105"><path d="M8.047E-06 780L540 780L540 780L540 0L540 0L8.047E-06 0z" /></clipPath><clipPath id="106"><path d="M8.047E-06 780L540 780L540 780L540 0L540 0L8.047E-06 0z" /></clipPath><clipPath id="107"><path d="M8.047E-06 780L540 780L540 780L540 0L540 0L8.047E-06 0z" /></clipPath><clipPath id="108"><path d="M8.047E-06 780L540 780L540 780L540 0L540 0L8.047E-06 0z" /></clipPath><clipPath id="109"><path d="M8.047E-06 780L540 780L540 780L540 0L540 0L8.047E-06 0z" /></clipPath><clipPath id="110"><path d="M8.047E-06 780L540 780L540 780L540 0L540 0L8.047E-06 0z" /></clipPath><clipPath id="111"><path d="M8.047E-06 780L540 780L540 780L540 0L540 0L8.047E-06 0z" /></clipPath><clipPath id="112"><path d="M8.047E-06 780L540 780L540 780L540 0L540 0L8.047E-06 0z" /></clipPath><clipPath id="113"><path d="M8.047E-06 780L540 780L540 780L540 0L540 0L8.047E-06 0z" /></clipPath><clipPath id="114"><path d="M8.047E-06 780L540 780L540 780L540 0L540 0L8.047E-06 0z" /></clipPath><clipPath id="115"><path d="M8.047E-06 780L540 780L540 780L540 0L540 0L8.047E-06 0z" /></clipPath><clipPath id="116"><path d="M8.047E-06 780L540 780L540 780L540 0L540 0L8.047E-06 0z" /></clipPath><clipPath id="117"><path d="M8.047E-06 780L540 780L540 780L540 0L540 0L8.047E-06 0z" /></clipPath><clipPath id="118"><path d="M8.047E-06 780L540 780L540 780L540 0L540 0L8.047E-06 0z" /></clipPath><clipPath id="119"><path d="M8.047E-06 780L540 780L540 780L540 0L540 0L8.047E-06 0z" /></clipPath><clipPath id="120"><path d="M8.047E-06 780L540 780L540 780L540 0L540 0L8.047E-06 0z" /></clipPath><clipPath id="121"><path d="M-1.19E-07 779.9999L540 779.9999L540 779.9999L540 -0.0001220703L540 -0.0001220703L-1.19E-07 -0.0001220703z" /></clipPath><clipPath id="122"><path d="M-6E-08 779.9999L540 779.9999L540 779.9999L540 -6.103516E-05L540 -6.103516E-05L-6E-08 -6.103516E-05z" /></clipPath><clipPath id="123"><path d="M0 779.9998L540 779.9998L540 779.9998L540 -0.0001831055L540 -0.0001831055L0 -0.0001831055z" /></clipPath><clipPath id="124"><path d="M8.047E-06 780L540 780L540 780L540 0L540 0L8.047E-06 0z" /></clipPath><clipPath id="125"><path d="M8.047E-06 780L540 780L540 780L540 0L540 0L8.047E-06 0z" /></clipPath><clipPath id="126"><path d="M8.047E-06 780L540 780L540 780L540 0L540 0L8.047E-06 0z" /></clipPath><clipPath id="127"><path d="M8.047E-06 780L540 780L540 780L540 0L540 0L8.047E-06 0z" /></clipPath><clipPath id="128"><path d="M8.047E-06 780L540 780L540 780L540 0L540 0L8.047E-06 0z" /></clipPath><clipPath id="129"><path d="M3.0518E-05 779.9998L540.0001 779.9998L540.0001 779.9998L540.0001 -0.0002441406L540.0001 -0.0002441406L3.0518E-05 -0.0002441406z" /></clipPath><clipPath id="130"><path d="M8.047E-06 780L540 780L540 780L540 0L540 0L8.047E-06 0z" /></clipPath><clipPath id="131"><path d="M8.047E-06 780L540 780L540 780L540 0L540 0L8.047E-06 0z" /></clipPath><clipPath id="132"><path d="M8.047E-06 780L540 780L540 780L540 0L540 0L8.047E-06 0z" /></clipPath><clipPath id="133"><path d="M8.047E-06 780L540 780L540 780L540 0L540 0L8.047E-06 0z" /></clipPath><clipPath id="134"><path d="M8.047E-06 780L540 780L540 780L540 0L540 0L8.047E-06 0z" /></clipPath><clipPath id="135"><path d="M8.047E-06 780L540 780L540 780L540 0L540 0L8.047E-06 0z" /></clipPath><clipPath id="136"><path d="M8.047E-06 780L540 780L540 780L540 0L540 0L8.047E-06 0z" /></clipPath><clipPath id="137"><path d="M8.047E-06 780L540 780L540 780L540 0L540 0L8.047E-06 0z" /></clipPath><clipPath id="138"><path d="M8.047E-06 780L540 780L540 780L540 0L540 0L8.047E-06 0z" /></clipPath><clipPath id="139"><path d="M8.047E-06 780L540 780L540 780L540 0L540 0L8.047E-06 0z" /></clipPath><clipPath id="140"><path d="M8.047E-06 780L540 780L540 780L540 0L540 0L8.047E-06 0z" /></clipPath><clipPath id="141"><path d="M8.047E-06 780L540 780L540 780L540 0L540 0L8.047E-06 0z" /></clipPath><clipPath id="142"><path d="M8.047E-06 780L540 780L540 780L540 0L540 0L8.047E-06 0z" /></clipPath><clipPath id="143"><path d="M8.047E-06 780L540 780L540 780L540 0L540 0L8.047E-06 0z" /></clipPath><clipPath id="144"><path d="M8.047E-06 780L540 780L540 780L540 0L540 0L8.047E-06 0z" /></clipPath></defs><g transform="matrix(1.333333 0 0 1.333333 0 0)"><g><g clip-path="url(#1)"><g clip-path="url(#2)"><path transform="matrix(1 0 0 -1 0 780)" d="M0 6.1035E-05L540 6.1035E-05L540 6.1035E-05L540 780.0001L540 780.0001L0 780.0001z" stroke="none" fill="#FFFFFF" fill-rule="evenodd" /></g><g clip-path="url(#3)"></g><g clip-path="url(#4)"></g><g clip-path="url(#5)"></g><g clip-path="url(#6)"></g><g clip-path="url(#7)"></g><g clip-path="url(#8)"></g><g clip-path="url(#9)"></g><g clip-path="url(#10)"></g><g clip-path="url(#11)"><path transform="matrix(1 0 0 -1 0 780)" d="M0.03 779.97L0.030079 -0.029663" stroke="#000000" stroke-width="4.5" fill="none" /></g><g clip-path="url(#12)"><path transform="matrix(1 0 0 -1 0 780)" d="M-5.25 779.97L549 779.97" stroke="#000000" stroke-width="4.5" fill="none" /></g><g clip-path="url(#13)"><path transform="matrix(1 0 0 -1 0 780)" d="M540.03 779.97L540.03 -0.029968" stroke="#000000" stroke-width="4.5" fill="none" /></g><g clip-path="url(#14)"></g><g clip-path="url(#15)"></g><g clip-path="url(#16)"></g><g clip-path="url(#17)"></g><g clip-path="url(#18)"></g><g clip-path="url(#19)"></g><g clip-path="url(#20)"></g><g clip-path="url(#21)"></g><g clip-path="url(#22)"></g><g clip-path="url(#23)"><path transform="matrix(1 0 0 -1 0 780)" d="M0.03 714.33L539.4901 714.33L539.4901 714.33L539.4901 777.33L539.4901 777.33L0.03 777.33z" stroke="#000000" stroke-width="4.5" fill="none" /></g><g clip-path="url(#24)"></g><g clip-path="url(#25)"></g><g clip-path="url(#26)"></g><g clip-path="url(#27)"></g><g clip-path="url(#28)"></g><g clip-path="url(#29)"></g><g clip-path="url(#30)"></g><g clip-path="url(#31)"></g><g clip-path="url(#32)"></g><g clip-path="url(#33)"><path transform="matrix(1 0 0 -1 0 780)" d="M0.03 585.45L186.57 585.45L186.57 585.45L186.57 714.33L186.57 714.33L0.03 714.33z" stroke="#000000" stroke-width="4.5" fill="none" /></g><g clip-path="url(#34)"></g><g clip-path="url(#35)"></g><g clip-path="url(#36)"></g><g clip-path="url(#37)"></g><g clip-path="url(#38)"></g><g clip-path="url(#39)"></g><g clip-path="url(#40)"></g><g clip-path="url(#41)"></g><g clip-path="url(#42)"></g><g clip-path="url(#43)"></g><g clip-path="url(#44)"></g><g clip-path="url(#45)"></g><g clip-path="url(#46)"></g><g clip-path="url(#47)"></g><g clip-path="url(#48)"></g><g clip-path="url(#49)"></g><g clip-path="url(#50)"></g><g clip-path="url(#51)"><path transform="matrix(1 0 0 -1 0 780)" d="M183.87 585.45L539.49 585.45" stroke="#000000" stroke-width="4.5" fill="none" /></g><g clip-path="url(#52)"></g><g clip-path="url(#53)"></g><g clip-path="url(#54)"></g><g clip-path="url(#55)"></g><g clip-path="url(#56)"></g><g clip-path="url(#57)"></g><g clip-path="url(#58)"></g><g clip-path="url(#59)"><path transform="matrix(1 0 0 -1 0 780)" d="M1.77 444.99L320.01 444.99L320.01 444.99L320.01 584.73L320.01 584.73L1.77 584.73z" stroke="#000000" stroke-width="4.5" fill="none" /></g><g clip-path="url(#60)"></g><g clip-path="url(#61)"></g><g clip-path="url(#62)"></g><g clip-path="url(#63)"></g><g clip-path="url(#64)"></g><g clip-path="url(#65)"></g><g clip-path="url(#66)"></g><g clip-path="url(#67)"></g><g clip-path="url(#68)"><path transform="matrix(1 0 0 -1 0 780)" d="M320.01 444.99L539.48 444.99" stroke="#000000" stroke-width="4.5" fill="none" /></g><g clip-path="url(#69)"></g><g clip-path="url(#70)"></g><g clip-path="url(#71)"></g><g clip-path="url(#72)"></g><g clip-path="url(#73)"></g><g clip-path="url(#74)"></g><g clip-path="url(#75)"><path transform="matrix(1 0 0 -1 0 780)" d="M0.57 403.95L427.11 403.95L427.11 403.95L427.11 444.51L427.11 444.51L0.57 444.51z" stroke="#000000" stroke-width="4.5" fill="none" /></g><g clip-path="url(#76)"><path transform="matrix(1 0 0 -1 0 780)" d="M427.11 128.31L538.29 128.31L538.29 128.31L538.29 444.99L538.29 444.99L427.11 444.99z" stroke="#000000" stroke-width="4.5" fill="none" /></g><g clip-path="url(#77)"></g><g clip-path="url(#78)"></g><g clip-path="url(#79)"></g><g clip-path="url(#80)"></g><g clip-path="url(#81)"></g><g clip-path="url(#82)"></g><g clip-path="url(#83)"></g><g clip-path="url(#84)"></g><g clip-path="url(#85)"></g><g clip-path="url(#86)"></g><g clip-path="url(#87)"></g><g clip-path="url(#88)"></g><g clip-path="url(#89)"></g><g clip-path="url(#90)"></g><g clip-path="url(#91)"></g><g clip-path="url(#92)"></g><g clip-path="url(#93)"></g><g clip-path="url(#94)"></g><g clip-path="url(#95)"></g><g clip-path="url(#96)"></g><g clip-path="url(#97)"></g><g clip-path="url(#98)"></g><g clip-path="url(#99)"></g><g clip-path="url(#100)"></g><g clip-path="url(#101)"></g><g clip-path="url(#102)"></g><g clip-path="url(#103)"></g><g clip-path="url(#104)"><path transform="matrix(1 0 0 -1 0 780)" d="M0.03 125.61L538.26 125.61" stroke="#000000" stroke-width="4.5" fill="none" /></g><path transform="matrix(1 0 0 -1 0 780)" d="M167.43 215.07L426.21 215.07L426.21 215.07L426.21 274.89L426.21 274.89L167.43 274.89z" stroke="#000000" stroke-width="4.5" fill="none" /><g clip-path="url(#105)"></g><g clip-path="url(#106)"></g><g clip-path="url(#107)"></g><g clip-path="url(#108)"></g><g clip-path="url(#109)"></g><g clip-path="url(#110)"></g><g clip-path="url(#111)"></g><g clip-path="url(#112)"></g><g clip-path="url(#113)"></g><g clip-path="url(#114)"></g><g clip-path="url(#115)"></g><g clip-path="url(#116)"></g><g clip-path="url(#117)"></g><g clip-path="url(#118)"></g><g clip-path="url(#119)"></g><g clip-path="url(#120)"></g><g clip-path="url(#121)"><path transform="matrix(1 0 0 -1 0 780)" d="M1.77 171.39L164.79 171.39L164.79 171.39L164.79 274.89L164.79 274.89L1.77 274.89z" stroke="#000000" stroke-width="4.5" fill="none" /></g><g clip-path="url(#122)"><path transform="matrix(1 0 0 -1 0 780)" d="M0.57 -0.029968L541.03 -0.030029" stroke="#000000" stroke-width="4.5" fill="none" /></g><g clip-path="url(#123)"><path transform="matrix(1 0 0 -1 0 780)" d="M2.37 95.01L540.6 95.01" stroke="#000000" stroke-width="4.5" fill="none" /></g><g clip-path="url(#124)"></g><g clip-path="url(#125)"></g><g clip-path="url(#126)"></g><g clip-path="url(#127)"></g><g clip-path="url(#128)"></g><g clip-path="url(#129)"><path transform="matrix(1 0 0 -1 0 780)" d="M426.26 369.87L143.75 369.87L143.75 369.87L143.75 348.11L143.75 348.11L-0.75003 348.11" stroke="#000000" stroke-width="4.5" fill="none" /></g><g clip-path="url(#130)"></g><g clip-path="url(#131)"></g><g clip-path="url(#132)"></g><g clip-path="url(#133)"></g><g clip-path="url(#134)"></g><g clip-path="url(#135)"></g><g clip-path="url(#136)"></g><g clip-path="url(#137)"></g><g clip-path="url(#138)"></g><g clip-path="url(#139)"></g><g clip-path="url(#140)"></g><g clip-path="url(#141)"></g><g clip-path="url(#142)"></g><g clip-path="url(#143)"></g><g clip-path="url(#144)"></g></g></g></g></svg>